<?xml version="1.0" encoding="UTF-8" standalone="no"?>
<!-- Created with Inkscape (http://www.inkscape.org/) -->

<svg
   width="237.9873"
   height="324.01068"
   viewBox="0 0 237.9873 324.01068"
   version="1.1"
   id="svg1"
   xml:space="preserve"
   xmlns="http://www.w3.org/2000/svg"
   xmlns:svg="http://www.w3.org/2000/svg"><defs
     id="defs1" /><g
     id="layer1"
     transform="translate(-127.69073,-88.610275)"><g
       id="g1"
       transform="matrix(6.6107589,0,0,6.6107589,88.026175,91.413668)"><path
         fill="#1976d2"
         d="M 6,6 H 23 V 23 H 6 Z"
         id="path1" /><path
         fill="#1976d2"
         d="M 25.042,22.958 V 6 H 42 v 16.958 z"
         id="path2" /><path
         fill="#1976d2"
         d="M 6,25 H 23 V 42 H 6 Z"
         id="path3" /><path
         fill="#1976d2"
         d="M 25,42 V 25 h 17 v 17 z"
         id="path4" /></g><g
       id="g2"
       transform="matrix(0.52344212,0,0,0.52344212,57.688057,62.176445)"><path
         d="m 490.6,113.1 -82.1,153.9 -8.2,15.4 17.1,-3.3 35.2,-6.8 -73.4,117.3 -9.4,15 17.5,-2.3 24.2,-3.2 -187.5,210.8 74.1,-136.2 7.8,-14.3 -16.1,2.1 -30.7,3.9 75.1,-124.3 9.6,-15.8 -18.2,3.4 -23.7,4.4 z m 42.8,-62.6 -253.2,295 46.9,-8.7 -84,139.1 47.8,-6.1 -108.8,199.7 250.5,-281.7 -46.4,6.1 83.5,-133.5 -53.9,10.5 z"
         id="path3-4" /><path
         d="m 492.39726,114.89726 -82.1,153.9 -8.2,15.4 17.1,-3.3 35.2,-6.8 -73.4,117.3 -9.4,15 17.5,-2.3 24.2,-3.2 -187.5,210.8 74.1,-136.2 7.8,-14.3 -16.1,2.1 -30.7,3.9 75.1,-124.3 9.6,-15.8 -18.2,3.4 -23.7,4.4 z"
         fill="#fff200"
         id="path4-8" /></g></g></svg>
